<?xml version="1.0" encoding="iso-8859-1"?>
<!-- Generator: Adobe Illustrator 19.0.0, SVG Export Plug-In . SVG Version: 6.00 Build 0)  -->
<svg version="1.1" id="Capa_1" 
    xmlns="http://www.w3.org/2000/svg" 
    xmlns:xlink="http://www.w3.org/1999/xlink" x="0px" y="0px" viewBox="0 0 512.001 512.001" style="enable-background:new 0 0 512.001 512.001;" xml:space="preserve">
    <polygon style="fill:#D1D6DE;" points="258.638,424.813 245.636,372.604 176.609,372.604 163.607,424.813 "/>
    <polygon style="fill:#A2ADBC;" points="250.715,393 245.636,372.604 176.609,372.604 171.529,393 "/>
    <path style="fill:#5C9CEE;" d="M394.317,53.024H27.927C12.528,53.024,0,65.553,0,80.951v271.226
	c0,15.398,12.528,27.927,27.927,27.927h366.39c15.399,0,27.928-12.528,27.928-27.927V80.951
	C422.245,65.553,409.717,53.024,394.317,53.024z"/>
    <path style="fill:#3580D3;" d="M394.317,53.024h-33.963c15.399,0,27.928,12.528,27.928,27.927v271.226
	c0,15.398-12.528,27.927-27.928,27.927h33.963c15.399,0,27.928-12.528,27.928-27.927V80.951
	C422.245,65.553,409.717,53.024,394.317,53.024z"/>
    <path style="fill:#EBEEF2;" d="M0,325.632v26.545c0,15.398,12.528,27.927,27.927,27.927h366.39
	c15.399,0,27.928-12.528,27.928-27.927v-26.545H0z"/>
    <path style="fill:#D1D6DE;" d="M388.282,352.177c0,15.398-12.528,27.927-27.928,27.927h33.963c15.399,0,27.928-12.528,27.928-27.927
	v-26.545h-33.963V352.177z"/>
    <path style="fill:#9FD479;" d="M65.729,112.947v22.829h215.755c1.657,0,3-1.343,3-3v-16.829c0-1.657-1.343-3-3-3H65.729z"/>
    <path style="fill:#1B3D66;" d="M65.729,154.329c-4.142,0-7.5-3.357-7.5-7.5v-44.936c0-4.143,3.358-7.5,7.5-7.5s7.5,3.357,7.5,7.5
	v44.936C73.229,150.973,69.872,154.329,65.729,154.329z"/>
    <path style="fill:#ED5575;" d="M65.729,185.462v22.829h131.706c1.657,0,3-1.343,3-3v-16.829c0-1.657-1.343-3-3-3H65.729z"/>
    <path style="fill:#1B3D66;" d="M65.729,226.844c-4.142,0-7.5-3.357-7.5-7.5v-44.936c0-4.143,3.358-7.5,7.5-7.5s7.5,3.357,7.5,7.5
	v44.936C73.229,223.486,69.872,226.844,65.729,226.844z"/>
    <path style="fill:#F2DF33;" d="M65.729,257.977v22.829h179.038c1.657,0,3-1.343,3-3v-16.829c0-1.657-1.343-3-3-3H65.729z"/>
    <path style="fill:#1B3D66;" d="M65.729,299.358c-4.142,0-7.5-3.357-7.5-7.5v-44.936c0-4.143,3.358-7.5,7.5-7.5s7.5,3.357,7.5,7.5
	v44.936C73.229,296.001,69.872,299.358,65.729,299.358z"/>
    <path style="fill:#48CFB7;" d="M401.184,125.482c-61.104,0-110.816,49.712-110.816,110.816s49.712,110.816,110.816,110.816
	S512,297.404,512,236.299S462.288,125.482,401.184,125.482z"/>
    <path style="fill:#35B5A0;" d="M435.057,130.785c33.209,19.16,55.61,55.043,55.61,96.06c0,61.104-49.712,110.816-110.816,110.816
	c-11.81,0-23.191-1.864-33.873-5.302c16.264,9.383,35.119,14.757,55.207,14.757c61.104,0,110.816-49.712,110.816-110.816
	C512,187.005,479.644,145.132,435.057,130.785z"/>
    <path style="fill:#EBEEF2;" d="M401.184,188.176c-33.514,0-62.419,19.688-75.813,48.122c13.394,28.434,42.299,48.122,75.813,48.122
	s62.419-19.688,75.813-48.122C463.602,207.865,434.698,188.176,401.184,188.176z"/>
    <path style="fill:#2E344C;" d="M401.184,196.982c-6.994,0-13.557,1.834-19.247,5.036c5.133,3.186,8.563,8.856,8.563,15.342
	c0,9.976-8.087,18.063-18.063,18.063c-3.854,0-7.419-1.217-10.351-3.273c-0.143,1.364-0.219,2.748-0.219,4.149
	c0,21.714,17.603,39.317,39.318,39.317c21.714,0,39.317-17.603,39.317-39.317S422.898,196.982,401.184,196.982z"/>
    <path style="fill:#EBEEF2;" d="M289.253,417.313H132.992c-12.449,0-22.578,10.128-22.578,22.577v11.586c0,4.143,3.358,7.5,7.5,7.5
	h186.417c4.143,0,7.5-3.357,7.5-7.5v-11.586C311.831,427.44,301.702,417.313,289.253,417.313z"/>
    <path style="fill:#D1D6DE;" d="M289.253,417.313h-26.381c12.449,0,22.578,10.128,22.578,22.577v11.586c0,4.143-3.357,7.5-7.5,7.5
	h26.381c4.143,0,7.5-3.357,7.5-7.5v-11.586C311.831,427.44,301.702,417.313,289.253,417.313z"/>
    <g>
    </g>
    <g>
    </g>
    <g>
    </g>
    <g>
    </g>
    <g>
    </g>
    <g>
    </g>
    <g>
    </g>
    <g>
    </g>
    <g>
    </g>
    <g>
    </g>
    <g>
    </g>
    <g>
    </g>
    <g>
    </g>
    <g>
    </g>
    <g>
    </g>
</svg>