<svg id="Capa_1" enable-background="new 0 0 512 512" height="512" viewBox="0 0 512 512" width="512" xmlns="http://www.w3.org/2000/svg"><g><g><g><path d="m450.517 504.5h-389.034c-22.091 0-40-17.909-40-40v-379.035c0-16.569 13.431-30 30-30h409.035c16.569 0 30 13.431 30 30v379.035c-.001 22.091-17.909 40-40.001 40z" fill="#fcf7cf"/><path d="m460.517 55.465h-40c16.569 0 30 13.431 30 30v379.035c0 22.091-17.909 40-40 40h40c22.091 0 40-17.909 40-40v-379.035c0-16.568-13.431-30-30-30z" fill="#faf1a7"/><path d="m490.517 140.764h-469.034v-55.299c0-16.569 13.431-30 30-30h409.035c16.569 0 30 13.431 30 30v55.299z" fill="#ff475e"/><path d="m460.517 55.465h-40c16.569 0 30 13.431 30 30v55.299h40v-55.299c0-16.568-13.431-30-30-30z" fill="#f23049"/><g><path d="m256 459.361s-164.193-56.568-164.193-178.895c0-48.688 39.106-88.158 87.344-88.158 33.2 0 62.072 18.696 76.849 46.225 14.777-27.529 43.65-46.225 76.849-46.225 48.239 0 87.344 39.47 87.344 88.158 0 119.593-164.193 178.895-164.193 178.895z" fill="#ffb5e4"/></g></g><g fill="#ffe185"><path d="m117.54 96c-11.874 0-21.5-9.626-21.5-21.5v-45.5c0-11.874 9.626-21.5 21.5-21.5 11.874 0 21.5 9.626 21.5 21.5v45.5c0 11.874-9.626 21.5-21.5 21.5z"/><path d="m256 96c-11.874 0-21.5-9.626-21.5-21.5v-45.5c0-11.874 9.626-21.5 21.5-21.5 11.874 0 21.5 9.626 21.5 21.5v45.5c0 11.874-9.626 21.5-21.5 21.5z"/><path d="m394.46 96c-11.874 0-21.5-9.626-21.5-21.5v-45.5c0-11.874 9.626-21.5 21.5-21.5 11.874 0 21.5 9.626 21.5 21.5v45.5c0 11.874-9.625 21.5-21.5 21.5z"/></g></g><g><path d="m460.518 47.965h-37.058v-18.965c0-15.991-13.01-29-29-29s-29 13.009-29 29v18.965h-80.46v-18.965c0-15.991-13.01-29-29-29s-29 13.009-29 29v18.965h-80.46v-18.965c0-15.991-13.01-29-29-29s-29 13.009-29 29v18.965h-37.058c-20.678 0-37.5 16.822-37.5 37.5v379.035c0 26.191 21.309 47.5 47.5 47.5h389.035c26.191 0 47.5-21.309 47.5-47.5v-379.035c.001-20.677-16.822-37.5-37.499-37.5zm-80.058-18.965c0-7.72 6.28-14 14-14s14 6.28 14 14v45.5c0 7.72-6.28 14-14 14s-14-6.28-14-14zm-138.46 0c0-7.72 6.28-14 14-14s14 6.28 14 14v45.5c0 7.72-6.28 14-14 14s-14-6.28-14-14zm-138.46 0c0-7.72 6.28-14 14-14s14 6.28 14 14v45.5c0 7.72-6.28 14-14 14s-14-6.28-14-14zm346.978 468h-389.036c-17.921 0-32.5-14.58-32.5-32.5v-316.236h46.473c4.143 0 7.5-3.358 7.5-7.5s-3.357-7.5-7.5-7.5h-46.473v-47.799c0-12.407 10.094-22.5 22.5-22.5h37.058v11.535c0 15.991 13.01 29 29 29s29-13.009 29-29v-11.535h80.46v11.535c0 15.991 13.01 29 29 29s29-13.009 29-29v-11.535h80.46v11.535c0 15.991 13.01 29 29 29s29-13.009 29-29v-11.535h37.058c12.406 0 22.5 10.093 22.5 22.5v47.799h-368.149c-4.143 0-7.5 3.358-7.5 7.5s3.357 7.5 7.5 7.5h368.148v316.236c.001 17.92-14.579 32.5-32.499 32.5z"/><path d="m332.849 184.809c-30.69 0-59.144 14.897-76.849 39.576-17.705-24.678-46.159-39.576-76.85-39.576-52.297 0-94.844 42.912-94.844 95.657 0 29.441 9.072 57.634 26.965 83.793 14.114 20.635 33.716 40.022 58.262 57.622 41.462 29.73 82.306 43.979 84.023 44.571 1.666.558 3.33.545 4.991-.037.995-.359 24.707-9.001 54.364-26.335 3.576-2.09 4.781-6.684 2.691-10.26-2.091-3.576-6.685-4.781-10.26-2.69-23.014 13.45-42.655 21.581-49.398 24.225-9.422-3.55-43.937-17.414-77.962-41.872-23.047-16.567-41.362-34.684-54.438-53.848-16.084-23.574-24.239-48.864-24.239-75.169 0-44.475 35.817-80.657 79.844-80.657 29.331 0 56.246 16.198 70.241 42.272 2.779 5.177 10.438 5.177 13.217 0 13.995-26.074 40.909-42.272 70.24-42.272 44.026 0 79.845 36.183 79.845 80.657 0 24.964-7.709 49.206-22.911 72.052-12.48 18.755-30.035 36.682-52.176 53.285-3.314 2.485-3.986 7.186-1.501 10.5 2.484 3.314 7.187 3.986 10.499 1.501 23.51-17.628 42.237-36.798 55.665-56.976 16.87-25.352 25.424-52.389 25.424-80.362.001-52.746-42.546-95.657-94.843-95.657z"/><path d="m213.96 391.959c4.143 0 7.5-3.358 7.5-7.5v-117.249c0-4.142-3.357-7.5-7.5-7.5h-25.061c-4.143 0-7.5 3.358-7.5 7.5s3.357 7.5 7.5 7.5h17.561v109.75c0 4.142 3.357 7.499 7.5 7.499z"/><path d="m323.101 342.354h-7.442c.183-29.265.311-63.386-.044-67.641-1.247-14.979-17.28-19.513-26.539-8.152-6.668 8.181-42.146 72.377-46.171 79.67-2.71 4.914.956 11.123 6.567 11.123h51.087c-.067 9.467-.14 18.706-.212 27.041-.035 4.142 3.293 7.528 7.436 7.564h.065c4.112 0 7.463-3.315 7.499-7.436.027-3.16.116-13.735.212-27.169h7.542c4.143 0 7.5-3.358 7.5-7.5s-3.358-7.5-7.5-7.5zm-22.443 0h-38.457c14.873-26.737 34.59-61.468 38.474-66.283.271 3.907.18 34.408-.017 66.283z"/></g></g></svg>