<svg xmlns="http://www.w3.org/2000/svg" height="512pt" version="1.1" viewBox="-132 0 512 512.00001" width="512pt">
    <g id="surface1">
        <path d="M 158.898438 35.3125 C 188.148438 35.3125 211.863281 59.023438 211.863281 88.277344 C 211.863281 117.527344 188.148438 141.242188 158.898438 141.242188 L 123.585938 141.242188 L 123.585938 176.550781 L 158.898438 176.550781 C 207.648438 176.550781 247.171875 137.03125 247.171875 88.277344 C 247.171875 39.523438 207.648438 0 158.898438 0 L 123.585938 0 L 123.585938 35.3125 Z M 158.898438 35.3125 " style=" stroke:none;fill-rule:nonzero;fill:rgb(74.117647%,73.72549%,75.686275%);fill-opacity:1;" />
        <path d="M 123.585938 141.242188 L 88.277344 141.242188 C 59.023438 141.242188 35.308594 117.527344 35.308594 88.277344 C 35.308594 59.023438 59.023438 35.3125 88.277344 35.3125 L 123.585938 35.3125 L 123.585938 0 L 88.277344 0 C 39.523438 0 0 39.523438 0 88.277344 C 0 137.03125 39.523438 176.550781 88.277344 176.550781 L 123.585938 176.550781 Z M 123.585938 141.242188 " style=" stroke:none;fill-rule:nonzero;fill:rgb(67.45098%,67.058824%,69.411765%);fill-opacity:1;" />
        <path d="M 105.929688 176.550781 L 123.585938 176.550781 L 123.585938 512 L 105.929688 512 Z M 105.929688 176.550781 " style=" stroke:none;fill-rule:nonzero;fill:rgb(69.803922%,84.313725%,95.686275%);fill-opacity:1;" />
        <path d="M 123.585938 176.550781 L 123.585938 512 L 141.242188 512 L 141.242188 176.550781 Z M 123.585938 176.550781 " style=" stroke:none;fill-rule:nonzero;fill:rgb(75.686275%,87.45098%,96.470588%);fill-opacity:1;" />
        <path d="M 176.550781 459.035156 L 211.863281 459.035156 L 211.863281 512 L 176.550781 512 Z M 176.550781 459.035156 " style=" stroke:none;fill-rule:nonzero;fill:rgb(70.588235%,84.705882%,95.686275%);fill-opacity:1;" />
        <path d="M 176.550781 512 L 176.550781 406.070312 L 141.242188 406.070312 L 141.242188 512 Z M 176.550781 512 " style=" stroke:none;fill-rule:nonzero;fill:rgb(63.137255%,80.784314%,94.509804%);fill-opacity:1;" />
    </g>
</svg>