<svg height="511.99975pt" viewBox="1 1 511.99975 511.99975" width="511.99975pt" 
    xmlns="http://www.w3.org/2000/svg">
    <path d="m326.492188 291.574219c35.210937 35.214843 92.066406 35.214843 127.277343 0 32.878907-32.878907 34.578125-84.640625 5.941407-120.066407 9.332031-4.242187 18.242187-10.183593 25.878906-17.820312 35.214844-35.210938 35.214844-92.066406 0-127.277344-35.210938-35.214844-92.066406-35.214844-127.277344 0-7.636719 7.636719-13.578125 16.546875-17.820312 25.878906-35.425782-28.636718-87.1875-26.9375-120.066407 5.941407-35.214843 35.210937-35.214843 92.066406 0 127.277343 11.667969 11.667969 25.667969 19.304688 40.515625 23.125l-260.941406 260.941407 42.425781 42.425781 42.425781-42.425781 42.425782 42.425781 42.425781-42.425781-10.605469-31.820313 31.820313 10.605469 42.425781-42.425781-42.425781-42.425782 112.449219-112.449218c3.820312 14.847656 11.457031 28.847656 23.125 40.515625zm-63.640626-148.492188c-11.667968-11.667969-11.667968-30.757812 0-42.425781 11.667969-11.667969 30.757813-11.667969 42.425782 0 11.667968 11.667969 11.667968 30.757812 0 42.425781-11.667969 11.667969-30.757813 11.667969-42.425782 0zm148.492188 63.640625c11.667969 11.667969 11.667969 30.757813 0 42.425782-11.667969 11.667968-30.757812 11.667968-42.425781 0-11.667969-11.667969-11.667969-30.757813 0-42.425782 11.667969-11.667968 30.757812-11.667968 42.425781 0zm-10.605469-95.460937c-11.667969-11.664063-11.667969-30.757813 0-42.425781 11.664063-11.667969 30.757813-11.667969 42.425781 0 11.664063 11.667968 11.664063 30.761718 0 42.425781-11.667968 11.667969-30.761718 11.667969-42.425781 0zm0 0" fill="#ffe470"/>
    <path d="m326.492188 291.574219c35.210937 35.214843 92.066406 35.214843 127.277343 0 32.878907-32.878907 34.578125-84.640625 5.941407-120.066407 9.332031-4.242187 18.242187-10.183593 25.878906-17.820312 35.214844-35.210938 35.214844-92.066406 0-127.277344l-42.425782 42.425782c11.667969 11.667968 11.667969 30.757812 0 42.425781-11.667968 11.667969-30.757812 11.667969-42.425781 0l-379.523437 379.523437 21.210937 21.214844 42.425781-42.425781 42.425782 42.425781 42.425781-42.425781-10.605469-31.820313 31.820313 10.605469 42.425781-42.425781-42.425781-42.425782 112.449219-112.449218c3.820312 14.847656 11.457031 28.847656 23.125 40.515625zm84.851562-84.851563c11.667969 11.667969 11.667969 30.757813 0 42.425782-11.667969 11.667968-30.757812 11.667968-42.425781 0-11.667969-11.667969-11.667969-30.757813 0-42.425782 11.667969-11.667968 30.757812-11.667968 42.425781 0zm0 0" fill="#fdbf00"/>
    <path d="m169.703125 469.578125-42.425781-42.425781 21.214844-21.214844 42.425781 42.425781zm0 0" fill="#ff9f00"/>
</svg>