<?xml version="1.0" encoding="iso-8859-1"?>
<!-- Generator: Adobe Illustrator 19.0.0, SVG Export Plug-In . SVG Version: 6.00 Build 0)  -->
<svg version="1.1" id="Capa_1" 
    xmlns="http://www.w3.org/2000/svg" 
    xmlns:xlink="http://www.w3.org/1999/xlink" x="0px" y="0px" viewBox="0 0 512 512" style="enable-background:new 0 0 512 512;" xml:space="preserve">
    <path style="fill:#00465F;" d="M391,256c0,36.899-26.4,67.2-61.5,73.5c-6.3,35.1-36.601,61.5-73.5,61.5s-67.2-26.4-73.5-61.5
	c-35.1-6.3-61.5-36.601-61.5-73.5c0-36.901,26.4-67.2,61.5-73.5c6.3-35.1,36.601-61.5,73.5-61.5s67.2,26.4,73.5,61.5
	C364.6,188.8,391,219.099,391,256z"/>
    <g>
        <path style="fill:#002C3C;" d="M512,512c-49.629,0-91-41.371-91-91v-6.255h30V421c0,33.091,27.909,61,61,61V512z"/>
        <path style="fill:#002C3C;" d="M391,256c0,36.899-26.4,67.2-61.5,73.5c-6.3,35.1-36.601,61.5-73.5,61.5V121
		c36.899,0,67.2,26.4,73.5,61.5C364.6,188.8,391,219.099,391,256z"/>
    </g>
    <path style="fill:#C6E2E7;" d="M256,0C115.3,0,0,115.3,0,256s115.3,256,256,256s256-115.3,256-256S396.7,0,256,0z M256,76
	c32.999,0,60,26.999,60,60c0,32.999-27.001,60-60,60s-60-27.001-60-60C196,102.999,223.001,76,256,76z M136,316
	c-32.999,0-60-27.001-60-60c0-33.001,27.001-60,60-60s60,26.999,60,60C196,288.999,168.999,316,136,316z M256,436
	c-32.999,0-60-27.001-60-60c0-33.001,27.001-60,60-60s60,26.999,60,60C316,408.999,288.999,436,256,436z M376,316
	c-32.999,0-60-27.001-60-60c0-33.001,27.001-60,60-60s60,26.999,60,60C436,288.999,408.999,316,376,316z"/>
    <path style="fill:#8EBAC5;" d="M256,0v76c32.999,0,60,26.999,60,60c0,32.999-27.001,60-60,60v120c32.999,0,60,26.999,60,60
	c0,32.999-27.001,60-60,60v76c140.7,0,256-115.3,256-256S396.7,0,256,0z M376,316c-32.999,0-60-27.001-60-60
	c0-33.001,27.001-60,60-60s60,26.999,60,60C436,288.999,408.999,316,376,316z"/>
    <g>
    </g>
    <g>
    </g>
    <g>
    </g>
    <g>
    </g>
    <g>
    </g>
    <g>
    </g>
    <g>
    </g>
    <g>
    </g>
    <g>
    </g>
    <g>
    </g>
    <g>
    </g>
    <g>
    </g>
    <g>
    </g>
    <g>
    </g>
    <g>
    </g>
</svg>