<?xml version="1.0" encoding="iso-8859-1"?>
<!-- Generator: Adobe Illustrator 21.0.0, SVG Export Plug-In . SVG Version: 6.00 Build 0)  -->
<svg xmlns="http://www.w3.org/2000/svg" 
	xmlns:xlink="http://www.w3.org/1999/xlink" version="1.1" id="Capa_1" x="0px" y="0px" viewBox="0 0 512 512" style="enable-background:new 0 0 512 512;" xml:space="preserve" width="512" height="512">
	<g>
		<path style="fill:#EBAD88;" d="M362,512H26c-2.209,0-4-1.791-4-4V44.177c0-2.209,1.791-4,4-4h336c2.209,0,4,1.791,4,4V508   C366,510.209,364.209,512,362,512z"/>
		<path style="fill:#E8916F;" d="M362,512h-26.898V40.177H362c2.209,0,4,1.791,4,4V508C366,510.209,364.209,512,362,512z"/>
		<path style="fill:#EBAD88;" d="M490,411.67v10.86l-43.56,77.99c-0.65,1.14-1.55,1.69-2.44,1.69s-1.79-0.55-2.44-1.69L398,422.53   v-10.86H490z"/>
		<path style="fill:#E89776;" d="M459.333,422.529L444,502.213c0.894,0,1.787-0.556,2.438-1.69L490,422.529H459.333z"/>
		<path style="fill:#363636;" d="M462.834,471.161l-16.396,29.36c-1.308,2.256-3.568,2.256-4.876,0l-16.396-29.36H462.834z"/>
		<g>
			<rect x="398" y="61.585" style="fill:#FFD659;" width="30.667" height="360.944"/>
			<rect x="428.667" y="61.585" style="fill:#FFBD54;" width="30.667" height="360.944"/>
			<rect x="459.333" y="61.585" style="fill:#FFA954;" width="30.667" height="360.944"/>
		</g>
		<path style="fill:#D8D5ED;" d="M52.898,477.095V75.082c0-2.209,1.791-4,4-4h274.204c2.209,0,4,1.791,4,4v402.012   c0,2.209-1.791,4-4,4H56.898C54.689,481.095,52.898,479.304,52.898,477.095z"/>
		<g>
			<path style="fill:#50536E;" d="M96.133,152.24h197.795c4.142,0,7.5-3.358,7.5-7.5s-3.358-7.5-7.5-7.5H96.133    c-4.142,0-7.5,3.358-7.5,7.5S91.991,152.24,96.133,152.24z"/>
			<path style="fill:#50536E;" d="M293.928,171.58H96.133c-4.142,0-7.5,3.358-7.5,7.5s3.358,7.5,7.5,7.5h197.795    c4.142,0,7.5-3.358,7.5-7.5S298.07,171.58,293.928,171.58z"/>
			<path style="fill:#50536E;" d="M293.928,205.919H96.133c-4.142,0-7.5,3.358-7.5,7.5s3.358,7.5,7.5,7.5h197.795    c4.142,0,7.5-3.358,7.5-7.5S298.07,205.919,293.928,205.919z"/>
			<path style="fill:#50536E;" d="M146.553,240.259h-50.42c-4.142,0-7.5,3.358-7.5,7.5s3.358,7.5,7.5,7.5h50.42    c4.142,0,7.5-3.358,7.5-7.5S150.695,240.259,146.553,240.259z"/>
		</g>
		<path style="fill:#50536E;" d="M211.513,0h-35.026c-15.497,0-28.104,12.607-28.104,28.104v19.574c0,4.142,3.358,7.5,7.5,7.5   s7.5-3.358,7.5-7.5V28.104c0-7.225,5.878-13.104,13.104-13.104h35.026c7.225,0,13.104,5.878,13.104,13.104v19.574   c0,4.142,3.358,7.5,7.5,7.5s7.5-3.358,7.5-7.5V28.104C239.617,12.607,227.01,0,211.513,0z"/>
		<path style="fill:#FF2C5C;" d="M254.781,95.58H133.219c-3.414,0-6.181-2.767-6.181-6.181V33.77c0-3.414,2.767-6.181,6.181-6.181   h121.561c3.414,0,6.181,2.767,6.181,6.181v55.63C260.962,92.813,258.194,95.58,254.781,95.58z"/>
		<path style="fill:#E62753;" d="M254.781,27.589h-30.905c3.414,0,6.181,2.767,6.181,6.181v55.63c0,3.414-2.767,6.181-6.181,6.181   h30.905c3.414,0,6.181-2.767,6.181-6.181V33.77C260.962,30.356,258.194,27.589,254.781,27.589z"/>
		<path style="fill:#4FC6F5;" d="M490,82.569h-92V49.576c0-9.088,7.367-16.456,16.456-16.456h59.089   c9.088,0,16.456,7.367,16.456,16.456V82.569z"/>
		<path style="fill:#3BB3E3;" d="M473.608,33.12h-30.667c9.053,0,16.392,7.396,16.392,16.52v32.929H490V49.64   C490,40.516,482.661,33.12,473.608,33.12z"/>
	</g>


</svg>

