<?xml version="1.0" encoding="iso-8859-1"?>
<!-- Generator: Adobe Illustrator 19.0.0, SVG Export Plug-In . SVG Version: 6.00 Build 0)  -->
<svg version="1.1" id="Layer_1" 
    xmlns="http://www.w3.org/2000/svg" 
    xmlns:xlink="http://www.w3.org/1999/xlink" x="0px" y="0px" viewBox="0 0 511.999 511.999" style="enable-background:new 0 0 511.999 511.999;" xml:space="preserve">
    <path style="fill:#4ACFD9;" d="M407.783,134.546c-6.845,0-13.631,0.664-20.287,1.98c0.34-3.677,0.512-7.373,0.512-11.065
	c0-65.717-53.465-119.182-119.182-119.182c-65.099,0-118.176,52.462-119.168,117.33c-11.8-4.096-24.16-6.165-36.891-6.165
	C50.588,117.444,0,168.032,0,230.212c0,28.114,10.407,55.046,29.304,75.833c18.105,19.916,42.533,32.635,69.055,36.023
	c1.112,0.584,2.377,0.913,3.72,0.913h303.566c0.169,0,0.336-0.005,0.502-0.016c0.544,0.01,1.089,0.016,1.635,0.016
	c57.466,0,104.217-46.751,104.217-104.217S465.249,134.546,407.783,134.546z"/>
    <path style="fill:#0295AA;" d="M149.659,123.61c-11.8-4.096-24.16-6.165-36.891-6.165C50.588,117.444,0,168.032,0,230.212
	c0,28.114,10.407,55.046,29.304,75.833c18.105,19.916,42.533,32.635,69.055,36.023c1.112,0.584,2.377,0.913,3.72,0.913h153.921
	V6.972C196.894,13.325,150.586,63.06,149.659,123.61z"/>
    <g>
        <path style="fill:#FFFFFF;" d="M347.925,133.478c-4.427,0-8.017-3.589-8.017-8.017c0-39.195-31.887-71.081-71.081-71.081
		c-4.427,0-8.017-3.589-8.017-8.017s3.589-8.017,8.017-8.017c48.035,0,87.115,39.08,87.115,87.115
		C355.942,129.888,352.352,133.478,347.925,133.478z"/>
        <path style="fill:#FFFFFF;" d="M471.917,246.78c-4.427,0-8.017-3.589-8.017-8.017c0-30.943-25.174-56.117-56.117-56.117
		c-4.427,0-8.017-3.589-8.017-8.017s3.589-8.017,8.017-8.017c39.784,0,72.15,32.366,72.15,72.15
		C479.933,243.191,476.344,246.78,471.917,246.78z"/>
    </g>
    <path style="fill:#FF8C29;" d="M414.946,256.3L260.491,132.041c-2.938-2.363-7.126-2.36-10.06,0.009L96.51,256.308
	c-2.644,2.135-3.656,5.704-2.524,8.908c1.132,3.203,4.161,5.347,7.559,5.347h73.219v167.282c0,4.427,3.589,8.017,8.017,8.017h145.37
	c4.427,0,8.017-3.589,8.017-8.017V270.563h73.754c3.4,0,6.432-2.145,7.561-5.353C418.612,262.002,417.595,258.431,414.946,256.3z"/>
    <path style="fill:#FD6A33;" d="M250.431,132.049L96.51,256.308c-2.644,2.135-3.656,5.704-2.524,8.908
	c1.132,3.203,4.161,5.347,7.559,5.347h73.219v167.282c0,4.427,3.589,8.017,8.017,8.017h73.219V130.316
	C254.042,130.184,252.046,130.745,250.431,132.049z"/>
    <g>
        <path style="fill:#F0353D;" d="M328.15,475.791h-145.37c-4.427,0-8.017-3.589-8.017-8.017c0-4.427,3.589-8.017,8.017-8.017h145.37
		c4.427,0,8.017,3.589,8.017,8.017C336.167,472.201,332.579,475.791,328.15,475.791z"/>
        <path style="fill:#F0353D;" d="M328.15,505.72h-145.37c-4.427,0-8.017-3.589-8.017-8.017c0-4.427,3.589-8.017,8.017-8.017h145.37
		c4.427,0,8.017,3.589,8.017,8.017C336.167,502.13,332.579,505.72,328.15,505.72z"/>
    </g>
    <g>
    </g>
    <g>
    </g>
    <g>
    </g>
    <g>
    </g>
    <g>
    </g>
    <g>
    </g>
    <g>
    </g>
    <g>
    </g>
    <g>
    </g>
    <g>
    </g>
    <g>
    </g>
    <g>
    </g>
    <g>
    </g>
    <g>
    </g>
    <g>
    </g>
</svg>