<svg id="Capa_1" enable-background="new 0 0 512 512" height="512" viewBox="0 0 512 512" width="512" xmlns="http://www.w3.org/2000/svg"><g><path d="m341.834 480.207v-448.414c0-17.559-14.234-31.793-31.792-31.793h-239.768c-17.559 0-31.793 14.234-31.793 31.793v448.415c0 17.558 14.234 31.793 31.793 31.793h239.768c17.558-.001 31.792-14.235 31.792-31.794z" fill="#f9f6f9"/><path d="m371.162 0h-69.537c17.559 0 31.793 14.234 31.793 31.793v448.415c0 17.558-14.234 31.793-31.793 31.793h69.537c17.559 0 31.793-14.234 31.793-31.793v-448.415c-.001-17.559-14.235-31.793-31.793-31.793z" fill="#dddaec"/><path d="m341.834 42.248h-246.336c-8.156 0-14.768 6.612-14.768 14.768v362.987c0 8.156 6.612 14.768 14.768 14.768h246.336z" fill="#c9e0fd"/><path d="m345.938 42.248h-12.521v392.524h12.521c8.156 0 14.768-6.612 14.768-14.768v-362.988c0-8.156-6.612-14.768-14.768-14.768z" fill="#bcd6f9"/><path d="m341.834 42.248h-246.336c-8.156 0-14.768 6.612-14.768 14.768v37.245h261.105v-52.013z" fill="#9bc4f9"/><path d="m345.938 42.248h-12.521v52.014h27.289v-37.246c0-8.156-6.612-14.768-14.768-14.768z" fill="#7fb2f9"/><path d="m237.716 479.034h-33.996c-4.267 0-7.726-3.459-7.726-7.726s3.459-7.726 7.726-7.726h33.996c4.267 0 7.726 3.459 7.726 7.726s-3.459 7.726-7.726 7.726z" fill="#9bc4f9"/><g fill="#ffc250"><circle cx="123.623" cy="68.255" r="7.726"/><circle cx="158.907" cy="68.255" r="7.726"/><circle cx="194.191" cy="68.255" r="7.726"/></g><path d="m408.879 231.321v-85.939c0-8.802-5.312-16.356-12.902-19.652h-42.753c-11.506 0-20.834 9.328-20.834 20.834v83.574c0 11.507 9.328 20.834 20.834 20.834h42.753c7.59-3.295 12.902-10.85 12.902-19.651z" fill="#e7a561"/><path d="m452.685 125.73h-69.108c11.506 0 20.834 9.328 20.834 20.834v83.574c0 11.507-9.328 20.834-20.834 20.834h69.108c11.506 0 20.834-9.328 20.834-20.834v-83.574c0-11.506-9.328-20.834-20.834-20.834z" fill="#e49542"/><path d="m405.625 213.209h-37.687c-2.855 0-5.17-2.315-5.17-5.17v-39.375c0-2.855 2.315-5.17 5.17-5.17h37.687c2.855 0 5.17 2.315 5.17 5.17v39.375c-.001 2.855-2.315 5.17-5.17 5.17z" fill="#fff"/><path d="m434.26 209.028-23.465-11.045v-19.263l23.465-11.045c4.131-1.945 8.881 1.07 8.881 5.636v30.082c0 4.566-4.75 7.58-8.881 5.635z" fill="#f9f6f9"/><g><g><g><g><path d="m265.201 341.315c-7.552-1.453-13.887-8.528-13.887-16.218v-44.059h-61.327v44.059c0 7.857-6.41 14.809-13.751 16.218 0 0 22.544 37.264 44.415 37.365 22.861.107 44.55-37.365 44.55-37.365z" fill="#ffddce"/></g></g></g></g><path d="m209.863 308.96c12.211-10.734 18.93-26.491 19.208-42.832l-.2-89.802c-.029-7.069-1.25-13.855-3.518-20.167-1.686-.148-3.382-.243-5.09-.255-31.518.49-60.004 24.575-59.86 59.305l.049 11.643.02 4.871-4.098.017c-6.008.026-10.858 4.976-10.832 11.057l.051 12.203c.025 6.081 4.916 10.99 10.924 10.965l4.114-.018c.406 15.979 7.104 31.332 19.133 41.727 4.627 3.999 10.158 7.739 16.616 10.579 5.127-2.685 9.622-5.9 13.483-9.293z" fill="#ffddce"/><path d="m295.706 242.157c-.025-6.081-4.916-10.99-10.924-10.964l-4.098.017-.069-16.514c-.141-33.765-27.337-57.395-58.069-58.723 2.634 6.573 4.123 13.831 4.156 21.636l.195 87.824c-.272 15.982-6.843 31.391-18.785 41.889-4.07 3.578-8.851 6.959-14.361 9.699 7.633 3.793 16.667 6.355 27.21 6.429 17.917-.279 31.45-7.677 41.064-16.128 11.942-10.497 18.513-25.907 18.785-41.889l4.114-.018c6.008-.026 10.858-4.976 10.832-11.057z" fill="#ffcbbe"/><path d="m294.981 418.969c-5.864-27.071-22.51-50.436-45.649-64.911-23.557 12.99-54.168 8.752-73.097-12.743l-17.306 3.331c-40.751 7.842-71.34 40.662-77.174 80.737 2.152 5.493 7.487 9.389 13.743 9.389h191.401c5.925-2.476 9.526-9.137 8.082-15.803z" fill="#dd5790"/><path d="m282.507 344.646-17.306-3.331-.03.034c-5.631 6.384-12.3 11.226-19.501 14.563 23.275 13.508 40.078 36.342 45.845 62.966 1.658 7.655-3.719 15.316-11.533 15.858-.341.024-.686.036-1.034.036h66.99c6.256 0 11.59-3.896 13.743-9.389-5.834-40.074-36.424-72.895-77.174-80.737z" fill="#da387d"/><path d="m218.563 195.091h4.173c2.071.009 4.131-.129 6.176-.388l-.041-18.377c-.046-11.127-3.026-21.564-8.441-30.529h-27.179c-25.963 0-47.011 21.047-47.011 47.011v31.067c0 4.563 2.888 8.627 7.197 10.127l11.58 4.032c4.048 1.409 8.275-1.6 8.268-5.886l-.025-21.907c-.044-10.654 8.452-19.327 18.977-19.373l.229-.001c3.221-.014 6.408.487 9.452 1.465 5.393 1.732 10.981 2.783 16.645 2.759z" fill="#407093"/><path d="m276.73 170.316h-.618c-3.419 0-6.191-2.772-6.191-6.191 0-10.123-8.206-18.33-18.33-18.33h-34.377c5.909 8.935 9.438 19.722 9.488 31.814l.038 17.318c4.292-.353 8.523-1.274 12.64-2.597 3.044-.978 6.23-1.478 9.452-1.465l.229.001c10.526.045 19.022 8.719 18.977 19.373l-.021 21.909c-.006 4.285 4.221 7.293 8.268 5.884l11.576-4.032c4.309-1.501 7.197-5.564 7.197-10.127v-35.229c.001-10.121-8.205-18.328-18.328-18.328z" fill="#365e7d"/></g></svg>